<?xml version="1.0" encoding="UTF-8"?>
<!DOCTYPE svg PUBLIC "-//W3C//DTD SVG 1.1//EN" "http://www.w3.org/Graphics/SVG/1.1/DTD/svg11.dtd">
<svg xmlns="http://www.w3.org/2000/svg" version="1.1" width="107px" height="149px" style="shape-rendering:geometricPrecision; text-rendering:geometricPrecision; image-rendering:optimizeQuality; fill-rule:evenodd; clip-rule:evenodd" xmlns:xlink="http://www.w3.org/1999/xlink">
<g><path style="opacity:0.893" fill="#626364" d="M 36.5,8.5 C 36.5,8.83333 36.5,9.16667 36.5,9.5C 28.1667,9.5 19.8333,9.5 11.5,9.5C 11.5,9.16667 11.5,8.83333 11.5,8.5C 19.9318,7.18625 28.2651,7.18625 36.5,8.5 Z"/></g>
<g><path style="opacity:0.987" fill="#000000" d="M 11.5,9.5 C 19.8333,9.5 28.1667,9.5 36.5,9.5C 38.5168,10.5294 40.5168,11.5294 42.5,12.5C 43.2216,12.9175 43.7216,13.5842 44,14.5C 44.6667,23.1667 44.6667,31.8333 44,40.5C 43.214,43.5827 41.3807,45.7494 38.5,47C 29.1667,47.6667 19.8333,47.6667 10.5,47C 8.67634,46.34 7.34301,45.1733 6.5,43.5C 6.40506,34.0759 6.57173,24.4092 7,14.5C 8.02496,12.313 9.52496,10.6464 11.5,9.5 Z"/></g>
<g><path style="opacity:0.991" fill="#000000" d="M 69.5,8.5 C 77.9903,9.32959 86.657,9.82959 95.5,10C 98.3807,11.2506 100.214,13.4173 101,16.5C 101.397,25.3111 101.564,33.9778 101.5,42.5C 100.653,44.8444 98.9861,46.3444 96.5,47C 87.5,47.6667 78.5,47.6667 69.5,47C 67.714,46.2155 66.214,45.0488 65,43.5C 63.3828,33.2659 63.0495,22.9325 64,12.5C 65.4321,10.5612 67.2654,9.22788 69.5,8.5 Z"/></g>
<g><path style="opacity:0.8" fill="#2c3136" d="M 36.5,9.5 C 36.5,9.16667 36.5,8.83333 36.5,8.5C 39.2921,8.62248 41.2921,9.95581 42.5,12.5C 40.5168,11.5294 38.5168,10.5294 36.5,9.5 Z"/></g>
<g><path style="opacity:0.298" fill="#575b60" d="M 101.5,42.5 C 101.564,33.9778 101.397,25.3111 101,16.5C 100.214,13.4173 98.3807,11.2506 95.5,10C 86.657,9.82959 77.9903,9.32959 69.5,8.5C 78.0884,7.36435 86.7551,7.19768 95.5,8C 97.5873,8.79217 99.4207,9.95884 101,11.5C 102.12,16.8932 102.62,22.3932 102.5,28C 102.499,33.0119 102.166,37.8453 101.5,42.5 Z"/></g>
<g><path style="opacity:1" fill="#474b4e" d="M 11.5,8.5 C 11.5,8.83333 11.5,9.16667 11.5,9.5C 9.52496,10.6464 8.02496,12.313 7,14.5C 6.57173,24.4092 6.40506,34.0759 6.5,43.5C 5.77842,43.0825 5.27842,42.4158 5,41.5C 4.33333,32.1667 4.33333,22.8333 5,13.5C 6.15853,10.5066 8.3252,8.83994 11.5,8.5 Z"/></g>
<g><path style="opacity:0.977" fill="#000000" d="M 34.5,56.5 C 39.929,56.4259 43.0957,59.0925 44,64.5C 44.6667,72.5 44.6667,80.5 44,88.5C 42.9078,92.4281 40.4078,94.7614 36.5,95.5C 28.0161,94.507 19.3494,94.1736 10.5,94.5C 8.10927,92.3852 6.77594,89.7186 6.5,86.5C 6.33362,78.4931 6.50029,70.4931 7,62.5C 8.16667,60.6667 9.66667,59.1667 11.5,58C 19.3443,57.829 27.011,57.329 34.5,56.5 Z"/></g>
<g><path style="opacity:0.99" fill="#000000" d="M 71.5,56.5 C 79.3228,57.3292 87.3228,57.8292 95.5,58C 98.0559,59.0545 99.7225,60.8878 100.5,63.5C 101.807,72.1365 101.807,80.8032 100.5,89.5C 99.4036,91.1032 98.0703,92.6032 96.5,94C 87.9899,94.1706 79.6566,94.6706 71.5,95.5C 67.4029,95.531 64.9029,93.531 64,89.5C 63.3333,80.1667 63.3333,70.8333 64,61.5C 65.8623,58.7923 68.3623,57.1256 71.5,56.5 Z"/></g>
<g><path style="opacity:0.306" fill="#353940" d="M 71.5,56.5 C 80.1731,56.3336 88.8397,56.5002 97.5,57C 100.021,58.5579 101.688,60.7245 102.5,63.5C 101.833,63.5 101.167,63.5 100.5,63.5C 99.7225,60.8878 98.0559,59.0545 95.5,58C 87.3228,57.8292 79.3228,57.3292 71.5,56.5 Z"/></g>
<g><path style="opacity:0.345" fill="#3c4044" d="M 34.5,56.5 C 27.011,57.329 19.3443,57.829 11.5,58C 9.66667,59.1667 8.16667,60.6667 7,62.5C 6.50029,70.4931 6.33362,78.4931 6.5,86.5C 5.83333,79.8333 5.16667,73.1667 4.5,66.5C 4.34503,61.9774 6.34503,58.8107 10.5,57C 18.4931,56.5003 26.4931,56.3336 34.5,56.5 Z"/></g>
<g><path style="opacity:0.399" fill="#535a60" d="M 4.5,66.5 C 5.16667,73.1667 5.83333,79.8333 6.5,86.5C 6.77594,89.7186 8.10927,92.3852 10.5,94.5C 10.1667,94.5 9.83333,94.5 9.5,94.5C 7.4959,93.3272 5.9959,91.6605 5,89.5C 4.50031,81.8406 4.33365,74.1739 4.5,66.5 Z"/></g>
<g><path style="opacity:0.578" fill="#595e63" d="M 100.5,63.5 C 101.167,63.5 101.833,63.5 102.5,63.5C 102.827,72.6822 102.493,81.6822 101.5,90.5C 101.5,89.8333 101.167,89.5 100.5,89.5C 101.807,80.8032 101.807,72.1365 100.5,63.5 Z"/></g>
<g><path style="opacity:0.952" fill="#3d3e40" d="M 9.5,94.5 C 9.83333,94.5 10.1667,94.5 10.5,94.5C 19.3494,94.1736 28.0161,94.507 36.5,95.5C 29.1093,95.2012 21.776,95.5345 14.5,96.5C 12.6639,95.9724 10.9972,95.3058 9.5,94.5 Z"/></g>
<g><path style="opacity:1" fill="#3c3d3e" d="M 100.5,89.5 C 101.167,89.5 101.5,89.8333 101.5,90.5C 101.141,92.371 100.141,93.871 98.5,95C 89.5062,95.4998 80.5062,95.6664 71.5,95.5C 79.6566,94.6706 87.9899,94.1706 96.5,94C 98.0703,92.6032 99.4036,91.1032 100.5,89.5 Z"/></g>
<g><path style="opacity:0.978" fill="#000000" d="M 34.5,144.5 C 27.5762,142.537 20.2428,141.87 12.5,142.5C 9.06787,141.401 7.06787,139.067 6.5,135.5C 6.57318,126.252 6.57318,117.252 6.5,108.5C 7.74894,106.864 9.4156,105.697 11.5,105C 19.8333,104.333 28.1667,104.333 36.5,105C 39.196,105.69 41.3626,107.19 43,109.5C 44.6114,118.732 44.9447,128.065 44,137.5C 42.3942,141.892 39.2276,144.225 34.5,144.5 Z"/></g>
<g><path style="opacity:0.987" fill="#000000" d="M 102.5,111.5 C 101.761,111.369 101.094,111.536 100.5,112C 101.482,119.747 101.815,127.58 101.5,135.5C 100.442,138.397 98.4419,140.564 95.5,142C 86.8333,142.667 78.1667,142.667 69.5,142C 66.9774,140.64 64.9774,138.807 63.5,136.5C 63.3336,127.827 63.5002,119.16 64,110.5C 65.2506,107.619 67.4173,105.786 70.5,105C 79.9091,104.083 89.2424,104.416 98.5,106C 100.464,107.451 101.797,109.284 102.5,111.5 Z"/></g>
<g><path style="opacity:1" fill="#3a3b3d" d="M 6.5,108.5 C 6.57318,117.252 6.57318,126.252 6.5,135.5C 5.83333,128.167 5.16667,120.833 4.5,113.5C 4.40206,111.447 5.06873,109.78 6.5,108.5 Z"/></g>
<g><path style="opacity:0.584" fill="#5a6065" d="M 102.5,111.5 C 102.827,120.682 102.493,129.682 101.5,138.5C 101.5,137.5 101.5,136.5 101.5,135.5C 101.815,127.58 101.482,119.747 100.5,112C 101.094,111.536 101.761,111.369 102.5,111.5 Z"/></g>
<g><path style="opacity:0.393" fill="#5e646b" d="M 4.5,113.5 C 5.16667,120.833 5.83333,128.167 6.5,135.5C 7.06787,139.067 9.06787,141.401 12.5,142.5C 13.1667,143.167 13.8333,143.833 14.5,144.5C 9.77243,144.225 6.60577,141.892 5,137.5C 4.50029,129.507 4.33362,121.507 4.5,113.5 Z"/></g>
<g><path style="opacity:1" fill="#3d3d3f" d="M 12.5,142.5 C 20.2428,141.87 27.5762,142.537 34.5,144.5C 27.8333,144.5 21.1667,144.5 14.5,144.5C 13.8333,143.833 13.1667,143.167 12.5,142.5 Z"/></g>
<g><path style="opacity:0.212" fill="#3a3e41" d="M 101.5,135.5 C 101.5,136.5 101.5,137.5 101.5,138.5C 100.746,141.091 99.079,142.924 96.5,144C 87.5,144.667 78.5,144.667 69.5,144C 66.1434,142.488 64.1434,139.988 63.5,136.5C 64.9774,138.807 66.9774,140.64 69.5,142C 78.1667,142.667 86.8333,142.667 95.5,142C 98.4419,140.564 100.442,138.397 101.5,135.5 Z"/></g>
</svg>
